ModelForces
version=1
nRows=4
nColumns=158
inDegrees=no

This file contains the forces exerted on a model during a simulation.

A force is a generalized force, meaning that it can be either a force (N) or a torque (Nm).

Units are S.I. units (second, meters, Newtons, ...)
Angles are in degrees.

endheader
time	glut_med1_r	glut_med2_r	glut_med3_r	glut_min1_r	glut_min2_r	glut_min3_r	semimem_r	semiten_r	bifemlh_r	bifemsh_r	sar_r	add_long_r	add_brev_r	add_mag1_r	add_mag2_r	add_mag3_r	tfl_r	pect_r	grac_r	glut_max1_r	glut_max2_r	glut_max3_r	iliacus_r	psoas_r	quad_fem_r	gem_r	peri_r	rect_fem_r	vas_med_r	vas_int_r	vas_lat_r	med_gas_r	lat_gas_r	soleus_r	tib_post_r	flex_dig_r	flex_hal_r	tib_ant_r	per_brev_r	per_long_r	per_tert_r	ext_dig_r	ext_hal_r	glut_med1_l	glut_med2_l	glut_med3_l	glut_min1_l	glut_min2_l	glut_min3_l	semimem_l	semiten_l	bifemlh_l	bifemsh_l	sar_l	add_long_l	add_brev_l	add_mag1_l	add_mag2_l	add_mag3_l	tfl_l	pect_l	grac_l	glut_max1_l	glut_max2_l	glut_max3_l	iliacus_l	psoas_l	quad_fem_l	gem_l	peri_l	rect_fem_l	vas_med_l	vas_int_l	vas_lat_l	med_gas_l	lat_gas_l	soleus_l	tib_post_l	flex_dig_l	flex_hal_l	tib_ant_l	per_brev_l	per_long_l	per_tert_l	ext_dig_l	ext_hal_l	ercspn_r	ercspn_l	intobl_r	intobl_l	extobl_r	extobl_l	femur_lat_meniscii_r.femur_lat_r.force.X	femur_lat_meniscii_r.femur_lat_r.force.Y	femur_lat_meniscii_r.femur_lat_r.force.Z	femur_lat_meniscii_r.femur_lat_r.torque.X	femur_lat_meniscii_r.femur_lat_r.torque.Y	femur_lat_meniscii_r.femur_lat_r.torque.Z	femur_lat_meniscii_r.meniscus_lat_r.force.X	femur_lat_meniscii_r.meniscus_lat_r.force.Y	femur_lat_meniscii_r.meniscus_lat_r.force.Z	femur_lat_meniscii_r.meniscus_lat_r.torque.X	femur_lat_meniscii_r.meniscus_lat_r.torque.Y	femur_lat_meniscii_r.meniscus_lat_r.torque.Z	femur_med_meniscii_r.femur_med_r.force.X	femur_med_meniscii_r.femur_med_r.force.Y	femur_med_meniscii_r.femur_med_r.force.Z	femur_med_meniscii_r.femur_med_r.torque.X	femur_med_meniscii_r.femur_med_r.torque.Y	femur_med_meniscii_r.femur_med_r.torque.Z	femur_med_meniscii_r.meniscus_med_r.force.X	femur_med_meniscii_r.meniscus_med_r.force.Y	femur_med_meniscii_r.meniscus_med_r.force.Z	femur_med_meniscii_r.meniscus_med_r.torque.X	femur_med_meniscii_r.meniscus_med_r.torque.Y	femur_med_meniscii_r.meniscus_med_r.torque.Z	femur_med_tibia_r.tibia_upper_r.force.X	femur_med_tibia_r.tibia_upper_r.force.Y	femur_med_tibia_r.tibia_upper_r.force.Z	femur_med_tibia_r.tibia_upper_r.torque.X	femur_med_tibia_r.tibia_upper_r.torque.Y	femur_med_tibia_r.tibia_upper_r.torque.Z	femur_med_tibia_r.femur_med_r.force.X	femur_med_tibia_r.femur_med_r.force.Y	femur_med_tibia_r.femur_med_r.force.Z	femur_med_tibia_r.femur_med_r.torque.X	femur_med_tibia_r.femur_med_r.torque.Y	femur_med_tibia_r.femur_med_r.torque.Z	femur_lat_tibia_r.tibia_upper_r.force.X	femur_lat_tibia_r.tibia_upper_r.force.Y	femur_lat_tibia_r.tibia_upper_r.force.Z	femur_lat_tibia_r.tibia_upper_r.torque.X	femur_lat_tibia_r.tibia_upper_r.torque.Y	femur_lat_tibia_r.tibia_upper_r.torque.Z	femur_lat_tibia_r.femur_lat_r.force.X	femur_lat_tibia_r.femur_lat_r.force.Y	femur_lat_tibia_r.femur_lat_r.force.Z	femur_lat_tibia_r.femur_lat_r.torque.X	femur_lat_tibia_r.femur_lat_r.torque.Y	femur_lat_tibia_r.femur_lat_r.torque.Z	aACL_R	pACL_R	aPCL_R	pPCL_R	aMCL_R	mMCL_R	pMCL_R	aLCL_R	mLCL_R	pLCL_R	aPCL_L	pPCL_L	aMCL_L	aLCL_L	ground_prescribedForce_0_fx	ground_prescribedForce_0_fy	ground_prescribedForce_0_fz
      0.25769331	      8.70183059	      6.45782625	      6.92384019	      3.01385839	      3.56362740	      3.67969509	     10.46840092	      4.74743550	      9.05591854	      8.15569789	      1.72902632	      6.40786719	      4.68844764	      3.32398202	      2.80294181	      4.61827611	      4.28294769	      2.53961225	      1.77866629	      4.16715506	      6.33512769	      4.74025699	     24.08723152	     14.59224794	      4.12206318	      3.08805591	      4.96486581	     12.63895326	      7.65118227	      7.69575992	      9.42808636	      4.20237405	      1.92309525	      8.55232350	      8.59160556	      2.94227470	      1.84059778	     14.98097388	      4.58134413	      8.77097841	      6.93506679	      6.41042346	      2.73199544	      8.70183059	      6.45782625	      6.92384019	      3.01385839	      3.56362740	      3.67969509	     10.40205813	      4.70120237	      9.07059699	      8.20242961	      1.72161119	      6.40786719	      4.68844764	      3.32398202	      2.80294181	      4.61827611	      4.48770930	      2.53961225	      1.76959804	      4.16715506	      6.33512769	      4.74025699	     24.08723152	     14.59224794	      4.12206318	      3.08805591	      4.96486581	     12.55942513	      7.53815400	      8.66901966	      9.31587507	     17.45850978	      8.10849017	     37.73737952	     45.03551692	      3.45072346	      3.56754530	      9.88147296	      5.17435816	     14.34055323	      2.25756671	      6.35930390	      2.00241845	     28.35265898	     28.35265898	     10.31834539	     10.31834539	     27.98937225	     27.98937225	     34.29649222	     80.50889081	      6.44633800	     -4.69573335	      0.86043492	     14.39785156	    -34.29649222	    -80.50889081	     -6.44633800	      2.62669795	     -1.03772974	     -1.17569880	     42.20783021	     80.41394124	      6.24545021	     -0.83810278	     -0.95628619	     17.94528838	    -42.20783021	    -80.41394124	     -6.24545021	     -1.15415435	      0.73875663	     -1.68044649	     -1.64554883	    -13.92592749	      4.62136652	     -0.30734654	     -0.03819730	     -0.22531106	      1.64554883	     13.92592749	     -4.62136652	      2.15570120	      0.03162659	      0.86366220	      0.00000000	      0.00000000	      0.00000000	      0.00000000	      0.00000000	      0.00000000	      0.00000000	      0.00000000	      0.00000000	      0.00000000	      0.00000000	      0.00000000	     18.40874174	     40.13602678	      0.00000000	      0.00000000	      0.00000000	      2.73973787	     42.69180940	     -0.34433275	      0.00000000	     -0.12704435	      0.00000000	      0.00000000	      0.00000001	      0.00000000	    110.00000000	      0.00000000	      0.00000000
      0.25899999	      8.68231962	      6.44447600	      6.90934818	      3.00789183	      3.55714796	      3.67146326	     10.43868482	      4.73609105	      9.02824807	      8.13790481	      1.72561928	      6.39446377	      4.67924993	      3.31715460	      2.79704626	      4.60760220	      4.27470366	      2.53455122	      1.77485143	      4.15853387	      6.32198398	      4.73024760	     24.06290609	     14.56468713	      4.11372366	      3.08409002	      4.95066124	     12.60341051	      7.63296046	      7.67660240	      9.40514716	      4.20905257	      1.92695216	      8.57177499	      8.56989575	      2.93110927	      1.80587611	     14.93863867	      4.57772275	      8.76313141	      7.84450232	      6.48817391	      2.74173477	      8.68231962	      6.44447600	      6.90934818	      3.00789183	      3.55714796	      3.67146326	     10.37440848	      4.69075652	      9.04731128	      8.18582185	      1.71821853	      6.39446377	      4.67924993	      3.31715460	      2.79704626	      4.60760220	      4.48109486	      2.53455122	      1.76604979	      4.15853387	      6.32198398	      4.73024760	     24.06290609	     14.56468713	      4.11372366	      3.08409002	      4.95066124	     12.52762153	      7.52217225	      8.65029586	      9.29582932	     17.40452441	      8.08338847	     37.62922330	     44.99107754	      3.43931035	      3.55698017	      9.85735404	      5.16039582	     14.31014501	      2.25330603	      6.34004695	      1.99650356	     28.29640127	     28.29640127	     10.29608284	     10.29608284	     27.96934974	     27.96934974	     34.32619080	     80.55149837	      6.44142703	     -4.69486856	      0.86122873	     14.41042158	    -34.32619080	    -80.55149837	     -6.44142703	      2.62804969	     -1.03872597	     -1.17675665	     42.21248251	     80.34955286	      6.23827665	     -0.83660819	     -0.95623693	     17.94657620	    -42.21248251	    -80.34955286	     -6.23827665	     -1.15310766	      0.73862262	     -1.67989495	     -1.63617991	    -13.83312402	      4.59203527	     -0.30533485	     -0.03794391	     -0.22386361	      1.63617991	     13.83312402	     -4.59203527	      2.14195635	      0.03141076	      0.85858636	      0.00000000	      0.00000000	      0.00000000	      0.00000000	      0.00000000	      0.00000000	      0.00000000	      0.00000000	      0.00000000	      0.00000000	      0.00000000	      0.00000000	     18.42960802	     40.16862228	      0.00000000	      0.00000000	      0.00000000	      2.75173584	     42.70967746	     -0.32879631	      0.00000000	     -0.11045758	      0.00000000	      0.00000000	      0.00000001	      0.00000000	    110.00000000	      0.00000000	      0.00000000
      0.26327404	      8.62079197	      6.40236803	      6.86364136	      2.98907099	      3.53671042	      3.64550387	     10.34514633	      4.70042255	      8.94684889	      8.09508705	      1.71435017	      6.35219033	      4.65024686	      3.29562040	      2.77845317	      4.57394312	      4.24978079	      2.51858645	      1.76282775	      4.13134341	      6.28053008	      4.69868063	     23.98619490	     14.47779082	      4.08741801	      3.07158674	      4.90577725	     12.49457399	      7.57491706	      7.61885045	      9.33795165	      4.24605117	      1.94905480	      8.67451608	      8.54665304	      2.88424526	      1.69524284	     14.80519910	      4.54575915	      8.72120488	      8.95447585	      6.81198493	      2.76867973	      8.62079197	      6.40236803	      6.86364136	      2.98907099	      3.53671042	      3.64550387	     10.28714469	      4.65781505	      8.97384304	      8.13343594	      1.70751760	      6.35219033	      4.65024686	      3.29562040	      2.77845317	      4.57394312	      4.46023707	      2.51858645	      1.75485711	      4.13134341	      6.28053008	      4.69868063	     23.98619490	     14.47779082	      4.08741801	      3.07158674	      4.90577725	     12.42728846	      7.47177418	      8.59125406	      9.23262112	     17.23363096	      8.00392936	     37.28749195	     44.85082398	      3.40321443	      3.52359623	      9.78128184	      5.11632203	     14.21404392	      2.23987125	      6.27920703	      1.97783157	     28.11894004	     28.11894004	     10.22587343	     10.22587343	     27.90620951	     27.90620951	     34.37828462	     80.63141694	      6.45060516	     -4.70109931	      0.86271479	     14.43234680	    -34.37828462	    -80.63141694	     -6.45060516	      2.63144993	     -1.04062375	     -1.17838929	     42.21191351	     80.21508972	      6.25114467	     -0.84512404	     -0.95591007	     17.94428893	    -42.21191351	    -80.21508972	     -6.25114467	     -1.14993549	      0.73812243	     -1.67764633	     -1.58859300	    -13.41383497	      4.45403722	     -0.29606482	     -0.03678983	     -0.21714803	      1.58859300	     13.41383497	     -4.45403722	      2.07752915	      0.03044948	      0.83343686	      0.00000000	      0.00000000	      0.00000000	      0.00000000	      0.00000000	      0.00000000	      0.00000000	      0.00000000	      0.00000000	      0.00000000	      0.00000000	      0.00000000	     18.46045871	     40.23621007	      0.00000000	      0.00000000	      0.00000000	      2.72152657	     42.70027444	     -0.22605858	      0.00000000	     -0.00360633	      0.00000000	      0.00000000	      0.00000001	      0.00000000	    110.00000000	      0.00000000	      0.00000000
      0.26718986	      8.56737459	      6.36580030	      6.82395129	      2.97272127	      3.51896078	      3.62296581	     10.25899145	      4.66705529	      8.87916299	      8.05254771	      1.70281933	      6.31548169	      4.62503831	      3.27691962	      2.76230893	      4.54472214	      4.22869842	      2.50471920	      1.75048973	      4.10773243	      6.24453357	      4.67127148	     23.91959352	     14.40236914	      4.06457077	      3.06073539	      4.86669514	     12.39795100	      7.51377425	      7.56124345	      9.27516440	      4.29358020	      1.97927485	      8.80916171	      8.60127382	      2.83195469	      1.60261559	     14.69021420	      4.48348864	      8.65181856	      0.00000000	      7.17635238	      2.78432758	      8.56737459	      6.36580030	      6.82395129	      2.97272127	      3.51896078	      3.62296581	     10.21129491	      4.62921505	      8.91001300	      8.08793783	      1.69822054	      6.31548169	      4.62503831	      3.27691962	      2.76230893	      4.54472214	      4.44212973	      2.50471920	      1.74513532	      4.10773243	      6.24453357	      4.67127148	     23.91959352	     14.40236914	      4.06457077	      3.06073539	      4.86669514	     12.34013023	      7.42801943	      8.53999904	      9.17775177	     17.08442610	      7.93455654	     36.98996429	     44.72891114	      3.37173802	      3.49451849	      9.71522060	      5.07800277	     14.13034143	      2.22820891	      6.22624734	      1.96159773	     27.96478415	     27.96478415	     10.16491272	     10.16491272	     27.85139239	     27.85139239	     34.39678875	     80.66871086	      6.49454810	     -4.72081321	      0.86341937	     14.44005732	    -34.39678875	    -80.66871086	     -6.49454810	      2.63466059	     -1.04154410	     -1.17877383	     42.19666686	     80.10789499	      6.28688647	     -0.86283115	     -0.95530322	     17.93630277	    -42.19666686	    -80.10789499	     -6.28688647	     -1.14631577	      0.73745513	     -1.67536732	     -1.56533171	    -13.19871142	      4.38278721	     -0.29128773	     -0.03617152	     -0.21371412	      1.56533171	     13.19871142	     -4.38278721	      2.04428971	      0.02992665	      0.82100014	      0.00000000	      0.00000000	      0.00000000	      0.00000000	      0.00000000	      0.00000000	      0.00000000	      0.00000000	      0.00000000	      0.00000000	      0.00000000	      0.00000000	     18.49797889	     40.30401742	      0.00000000	      0.00000000	      0.00000000	      2.71464952	     42.71008265	     -0.02099665	      0.00000000	      0.20870060	      0.00000000	      0.00000000	      0.00000001	      0.00000000	    110.00000000	      0.00000000	      0.00000000
